<?xml version="1.0" encoding="utf-8"?>
<svg width="13" height="13" viewBox="0 0 1792 1792" xmlns="http://www.w3.org/2000/svg">
  <path d="M 1600 778.75 L 1600 1006.25 C 1600 1037.846 1590.667 1064.704 1572 1086.823 C 1553.333 1108.941 1530.667 1120 1504 1120 L 1088 1120 L 704 1120 L 288 1120 C 261.333 1120 238.667 1108.941 220 1086.823 C 201.333 1064.704 192 1037.846 192 1006.25 L 192 778.75 C 192 747.153 201.333 720.296 220 698.177 C 238.667 676.058 261.333 665 288 665 L 704 665 L 1088 665 L 1504 665 C 1530.667 665 1553.333 676.058 1572 698.177 C 1590.667 720.296 1600 747.153 1600 778.75 Z" style="fill: rgb(61, 102, 203);"/>
</svg>